<svg width="147" height="43" fill="none" xmlns="http://www.w3.org/2000/svg"><path d="M65.95 21.882c-1.313 0-1.573 1.872-1.573 3.645 0 1.782.245 3.64 1.573 3.64 1.348 0 1.573-1.858 1.573-3.645 0-1.768-.275-3.64-1.573-3.64zm0 9.087c-2.9 0-4.064-2.406-4.064-5.352 0-2.931 1.163-5.353 4.064-5.353s4.065 2.422 4.065 5.353c0 2.946-1.164 5.347-4.065 5.347m14.77-.144v-5.712c0-.62-.365-1.104-1.179-1.104a1.386 1.386 0 00-1.028.394v6.422h-2.357v-5.742c0-.65-.454-1.074-1.273-1.074a2.479 2.479 0 00-.949.15v6.666h-2.357v-7.69c.904-.41 1.873-.609 3.296-.609 1.343 0 2.112.365 2.581.819.515-.44 1.348-.819 2.692-.819 1.932 0 2.93 1.148 2.93 2.587v5.712H80.72zm7.344-6.94a1.674 1.674 0 00-.848.179v5.338c.233.086.48.126.729.12 1.193 0 1.707-1.06 1.707-2.887 0-1.587-.334-2.75-1.588-2.75zm-.26 7.06c-1.402 0-2.396-.26-2.945-.605V18.921h2.357v3.915a3.24 3.24 0 011.513-.3c1.917 0 3.245 1.538 3.245 3.945 0 2.856-1.493 4.458-4.17 4.458zm9.093.03c-2.297 0-3.415-.86-3.415-2.827v-5.472h2.357v5.642c0 .584.32 1.069 1.118 1.069.34.016.678-.053.984-.2v-6.506h2.356v7.664c-.754.38-1.872.63-3.4.63zm9.672-6.99a2.178 2.178 0 00-.649-.09c-1.299 0-1.798 1.118-1.798 2.795 0 1.768.529 2.782 1.723 2.782a1.59 1.59 0 00.724-.12v-5.368zm-.769 6.98c-2.467 0-4.01-1.449-4.01-4.17 0-2.616 1.483-4.214 3.585-4.214.485 0 .889.06 1.194.135v-3.765h2.346v11.41c-.749.399-1.712.603-3.115.603zm6.805.01a4.582 4.582 0 01-2.386-.59l.599-1.498c.304.245.864.47 1.453.47.604 0 1.013-.375 1.013-.89 0-.548-.284-.848-1.043-1.148-1.498-.594-1.828-1.423-1.828-2.271 0-1.389 1.089-2.507 2.721-2.507 1.014 0 1.708.2 2.347.59l-.579 1.347a2.071 2.071 0 00-1.238-.424c-.619 0-.939.375-.939.849 0 .54.41.844 1.049 1.113 1.567.664 1.927 1.438 1.927 2.387 0 1.423-1.163 2.571-3.096 2.571zm13.691-.15v-5.712c0-.62-.364-1.104-1.178-1.104a1.386 1.386 0 00-1.029.394v6.422h-2.356v-5.742c0-.65-.455-1.074-1.274-1.074a2.474 2.474 0 00-.948.15v6.666h-2.357v-7.69c.904-.41 1.872-.609 3.295-.609 1.343 0 2.112.365 2.582.819.514-.44 1.348-.819 2.691-.819 1.932 0 2.931 1.148 2.931 2.587v5.712h-2.357zm8.314-4.294c-1.423.134-2.347.469-2.347 1.767 0 .949.549 1.358 1.488 1.358.295.01.588-.047.859-.165v-2.96zm-.984 4.428c-2.357 0-3.565-.878-3.565-2.571 0-2.097 2.097-2.716 4.549-2.946v-.38c0-.848-.575-1.088-1.433-1.088-.789 0-1.593.26-2.117.5l-.515-1.349a7.86 7.86 0 013.066-.614c1.847 0 3.206.77 3.206 2.976v4.868c-.68.36-1.783.604-3.191.604zm9.542-.134v-5.698c0-.574-.26-1.133-1.209-1.133a2.767 2.767 0 00-.998.165v6.666h-2.357v-7.69a8.539 8.539 0 013.415-.609c2.582 0 3.505 1.104 3.505 2.587v5.712h-2.356zM65.965 6.903v8.753H63.5V6.903h-1.813V5.255h6.077v1.648h-1.798zm7.74 8.738V9.934c0-.634-.285-1.149-1.209-1.149a2.012 2.012 0 00-.998.23v6.626H69.14V5.29h2.356v2.436a4.234 4.234 0 011.753-.375c2.042 0 2.811 1.179 2.811 2.537v5.752h-2.357zm7.44-6.89c-.97 0-1.574.828-1.499 2.506l2.846-.42c0-1.448-.49-2.087-1.348-2.087zm-1.35 3.66c.17 1.193.775 1.782 1.968 1.782.949 0 1.678-.215 2.117-.44l.53 1.468a6.361 6.361 0 01-2.916.59c-2.497 0-3.935-1.648-3.935-4.25 0-2.556 1.333-4.199 3.675-4.199 2.357 0 3.55 1.598 3.445 4.35l-4.883.698zm13.302-5.908a2.028 2.028 0 00-.739.12v3.72l.33.015c1.548.075 2.102-.574 2.102-1.937 0-1.298-.45-1.918-1.693-1.918zm-.409 5.278l-.33-.035v3.915h-2.406V5.72c.744-.365 1.847-.605 3.16-.605 2.886 0 4.005 1.463 4.005 3.32 0 1.953-1.298 3.63-4.429 3.346zm9.771-2.731a2.033 2.033 0 00-1.572-.045v6.65H98.53V7.967c.904-.444 2.177-.684 4.369-.579l-.44 1.663zm4.519-.25c-1.043 0-1.253 1.268-1.253 2.721 0 1.463.225 2.662 1.253 2.662 1.044 0 1.253-1.199 1.253-2.662 0-1.448-.209-2.72-1.253-2.72zm0 6.98c-2.357 0-3.595-1.797-3.595-4.229 0-2.436 1.238-4.219 3.58-4.219 2.372 0 3.61 1.783 3.61 4.22 0 2.431-1.238 4.229-3.595 4.229zm8.179-7.03a1.916 1.916 0 00-.724.12v5.398c.149.06.359.104.619.104 1.253 0 1.812-.983 1.812-2.81 0-1.828-.449-2.812-1.707-2.812zm.454 7.015a4.376 4.376 0 01-1.178-.14v3.281h-2.362V7.966c.699-.35 1.668-.604 3.116-.604 2.436 0 4.004 1.433 4.004 4.17 0 2.616-1.463 4.233-3.58 4.233zm8.373-7.015c-.968 0-1.572.83-1.498 2.507l2.847-.42c0-1.448-.49-2.087-1.349-2.087zm-1.348 3.66c.17 1.194.774 1.783 1.968 1.783.948 0 1.677-.215 2.117-.44l.529 1.468a6.362 6.362 0 01-2.916.59c-2.497 0-3.935-1.648-3.935-4.25 0-2.556 1.334-4.199 3.675-4.199 2.357 0 3.55 1.598 3.445 4.35l-4.883.698zm10.311-3.36a2.037 2.037 0 00-1.573-.045v6.65h-2.357V7.967c.904-.444 2.177-.684 4.369-.579l-.439 1.663zm4.429 6.74c-1.708 0-2.447-1.098-2.447-2.356V9.05h-.894V7.522h.894V5.784l2.357-.599v2.337h1.253V9.05h-1.253v4.204c0 .62.225.949.754.949.2 0 .299-.03.499-.09v1.448a2.924 2.924 0 01-1.163.23zm5.717 3.096h-2.477l1.298-3.245-2.646-8.149h2.497l1.118 4.714c.165.699.165 1.283.165 1.283h.03s.05-.59.224-1.284l1.244-4.713h2.207l-3.66 11.394zM56.339 38.16l-3.426-5.033H30.455c-1.338 0-2.397-.549-2.896-1.498-.5-.953-.36-2.132.4-3.235L38.827 12.44l-7.22-10.605c-1.668-2.447-4.394-2.447-6.056 0L.786 38.159c-1.663 2.447-.6 4.444 2.357 4.444h50.844c2.96 0 4.014-1.997 2.352-4.444z" fill="#fff"/><path d="M43.531 10.598c.41 0 .809.25 1.124.709l12.288 18.05c.3.434.389.828.25 1.078-.13.26-.51.4-1.034.4h-25.27c-.524 0-.899-.14-1.034-.4-.135-.25-.045-.644.25-1.078l10.14-14.865 2.168-3.18c.314-.46.714-.71 1.123-.71m14.2 18.225L45.44 10.772a2.347 2.347 0 00-1.91-1.122c-.155.004-.31.025-.46.065a2.447 2.447 0 00-1.447 1.059l-1.957 2.87-10.346 15.18c-.504.743-.614 1.477-.305 2.061.305.58.974.9 1.873.9h25.27c.769 0 1.348-.245 1.702-.675.06-.075.13-.14.175-.225.31-.584.2-1.318-.305-2.062" fill="#fff"/></svg>